<svg xmlns="http://www.w3.org/2000/svg" viewBox="0 0 125.45 125.43"><title>Samsung Pay logo</title><path d="M573.58,493.3c-1.54-11.65-5.67-22.2-12.94-29.93h0c-7.73-7.27-18.29-11.39-29.93-12.93a158,158,0,0,0-37.4,0c-11.65,1.54-22.2,5.67-29.94,12.93-7.27,7.73-11.39,18.29-12.94,29.93a158.2,158.2,0,0,0,0,37.4c1.54,11.65,5.67,22.2,12.94,29.93h0c7.73,7.27,18.29,11.39,29.94,12.94a158.29,158.29,0,0,0,37.4,0c11.65-1.54,22.2-5.67,29.93-12.94h0c7.27-7.73,11.39-18.28,12.94-29.93a158.23,158.23,0,0,0,0-37.4" transform="translate(-449.28 -449.28)" style="fill:#1e4bc6"/><path d="M472.37,493.62h11.26a11.93,11.93,0,0,1,4.73.92,11.75,11.75,0,0,1,3.74,2.5,11.53,11.53,0,0,1,2.48,3.72,11.65,11.65,0,0,1,.9,4.57,11.83,11.83,0,0,1-.9,4.6,11.45,11.45,0,0,1-2.48,3.74,11.69,11.69,0,0,1-3.76,2.5,12.06,12.06,0,0,1-4.75.92H478.5v9.41h-6.13Zm6.13,5.68v12.12h4.68a6.33,6.33,0,0,0,2.48-.47,5.82,5.82,0,0,0,1.94-1.31,6,6,0,0,0,1.26-1.94,6.41,6.41,0,0,0,0-4.73,5.72,5.72,0,0,0-1.26-1.91,6,6,0,0,0-1.94-1.28,6.33,6.33,0,0,0-2.48-.47H478.5Z" transform="translate(-449.28 -449.28)" style="fill:#fff"/><path d="M509.64,526.55a13.23,13.23,0,0,1-8.88-3.47,12.78,12.78,0,0,1-3-4.15,13.22,13.22,0,0,1-1.13-5.58,13.58,13.58,0,0,1,1.1-5.62,12.48,12.48,0,0,1,7.12-6.73,13.67,13.67,0,0,1,4.84-.89,12.14,12.14,0,0,1,4.82.95,10.08,10.08,0,0,1,3.65,2.58v-3.48h6.08v26.35H518.2v-3.74a9.91,9.91,0,0,1-3.7,2.78,11.69,11.69,0,0,1-4.86,1m1-5.58a8.24,8.24,0,0,0,3.15-.59,7.31,7.31,0,0,0,2.48-1.65,8.11,8.11,0,0,0,1.64-2.46,7.4,7.4,0,0,0,.61-3,7.31,7.31,0,0,0-.61-3,7.84,7.84,0,0,0-1.64-2.43,7.43,7.43,0,0,0-2.48-1.63,8.63,8.63,0,0,0-6.29,0,8.11,8.11,0,0,0-2.55,1.61,7.26,7.26,0,0,0-1.69,2.41,7.43,7.43,0,0,0-.61,3,7.59,7.59,0,0,0,.61,3,7.41,7.41,0,0,0,1.69,2.45,7.88,7.88,0,0,0,2.55,1.63,8.27,8.27,0,0,0,3.13.59" transform="translate(-449.28 -449.28)" style="fill:#fff"/><polygon points="87.8 76.09 76.99 50.87 83.47 50.87 90.82 68.91 97.76 50.87 104.16 50.87 88.43 89.34 82.26 89.34 87.8 76.09" style="fill:#fff"/></svg>