<?xml version="1.0" encoding="UTF-8"?>
<svg xmlns="http://www.w3.org/2000/svg" xmlns:xlink="http://www.w3.org/1999/xlink" width="194pt" height="194pt" viewBox="0 0 194 194" version="1.1">
<g id="surface1">
<path style=" stroke:none;fill-rule:evenodd;fill:rgb(100%,100%,100%);fill-opacity:1;" d="M 0.257813 0.675781 L 193.015625 0.675781 L 193.015625 193.433594 L 0.257813 193.433594 L 0.257813 0.675781 "/>
<path style=" stroke:none;fill-rule:evenodd;fill:rgb(100%,83.099365%,0%);fill-opacity:1;" d="M 8.761719 53.097656 L 184.511719 53.097656 L 184.511719 141.015625 L 8.761719 141.015625 L 8.761719 53.097656 "/>
<path style=" stroke:none;fill-rule:evenodd;fill:rgb(100%,100%,100%);fill-opacity:1;" d="M 144.707031 95.238281 L 146.609375 86.671875 L 19.582031 86.671875 L 17.675781 95.238281 L 144.707031 95.238281 "/>
<path style=" stroke:none;fill-rule:evenodd;fill:rgb(92.89856%,10.998535%,14.099121%);fill-opacity:1;" d="M 153.359375 62.097656 L 167.378906 62.097656 L 165.128906 72.480469 L 175.511719 72.480469 L 172.828125 85.460938 L 162.445313 85.460938 L 160.367188 95.238281 L 148.945313 95.238281 L 149.640625 91.863281 L 157.601563 91.863281 L 159.589844 82.171875 L 170.0625 82.171875 L 171.359375 75.769531 L 160.976563 75.769531 L 163.136719 65.382813 L 156.128906 65.382813 L 153.964844 75.769531 L 150.417969 75.769531 L 153.359375 62.097656 "/>
<path style=" stroke:none;fill-rule:evenodd;fill:rgb(13.699341%,12.199402%,12.5%);fill-opacity:1;" d="M 58.605469 72.824219 L 54.800781 72.824219 L 54.800781 72.910156 L 49.261719 84.941406 L 49.175781 73 L 49.175781 72.824219 L 44.503906 72.824219 L 44.414063 72.910156 L 39.222656 84.941406 L 38.789063 73 L 38.789063 72.824219 L 35.070313 72.824219 L 35.15625 73 L 36.195313 89.441406 L 36.195313 89.613281 L 40.519531 89.613281 L 40.519531 89.527344 L 46.058594 76.980469 L 46.230469 89.441406 L 46.230469 89.613281 L 50.644531 89.613281 L 50.644531 89.527344 L 58.519531 73.085938 L 58.605469 72.824219 "/>
<path style=" stroke:none;fill-rule:evenodd;fill:rgb(13.699341%,12.199402%,12.5%);fill-opacity:1;" d="M 63.28125 72.824219 L 59.472656 72.824219 L 59.386719 73 L 55.925781 89.441406 L 55.925781 89.613281 L 59.730469 89.613281 L 59.730469 89.441406 L 63.191406 73 L 63.28125 72.824219 "/>
<path style=" stroke:none;fill-rule:evenodd;fill:rgb(13.699341%,12.199402%,12.5%);fill-opacity:1;" d="M 81.710938 72.566406 C 78.769531 72.566406 75.394531 73.863281 75.394531 77.671875 C 75.394531 80.179688 77.210938 81.132813 78.683594 81.996094 C 79.980469 82.691406 81.019531 83.296875 81.019531 84.59375 C 81.019531 86.238281 79.546875 86.929688 78.078125 86.929688 C 76.605469 86.929688 75.308594 86.410156 74.097656 85.804688 L 73.921875 85.71875 L 73.835938 85.980469 L 73.058594 88.746094 L 72.972656 88.921875 L 73.144531 88.921875 C 74.789063 89.613281 76.433594 89.871094 77.902344 89.871094 C 80.238281 89.871094 82.144531 89.265625 83.355469 88.054688 C 84.304688 87.105469 84.828125 85.804688 84.828125 84.246094 C 84.828125 81.566406 82.921875 80.441406 81.363281 79.488281 C 80.152344 78.796875 79.203125 78.191406 79.203125 77.152344 C 79.203125 76.808594 79.375 76.460938 79.632813 76.199219 C 80.152344 75.683594 81.105469 75.507813 81.796875 75.507813 C 82.835938 75.507813 84.132813 75.769531 85.085938 76.285156 L 85.34375 76.375 L 85.34375 76.199219 L 86.125 73.519531 L 86.210938 73.34375 L 86.039063 73.257813 C 84.828125 72.824219 83.355469 72.566406 81.710938 72.566406 "/>
<path style=" stroke:none;fill-rule:evenodd;fill:rgb(13.699341%,12.199402%,12.5%);fill-opacity:1;" d="M 74.355469 73.34375 L 74.183594 73.257813 C 72.972656 72.824219 71.585938 72.566406 69.855469 72.566406 C 67 72.566406 63.625 73.863281 63.625 77.671875 C 63.625 80.179688 65.355469 81.132813 66.914063 81.996094 C 68.125 82.691406 69.164063 83.296875 69.164063 84.59375 C 69.164063 86.238281 67.691406 86.929688 66.222656 86.929688 C 64.835938 86.929688 63.453125 86.410156 62.328125 85.804688 L 62.15625 85.71875 L 62.066406 85.980469 L 61.203125 88.746094 L 61.203125 88.921875 L 61.289063 88.921875 C 63.019531 89.613281 64.578125 89.871094 66.046875 89.871094 C 68.472656 89.871094 70.375 89.265625 71.585938 88.054688 C 72.539063 87.105469 72.972656 85.804688 72.972656 84.246094 C 72.972656 81.566406 71.066406 80.441406 69.511719 79.488281 C 68.386719 78.796875 67.347656 78.191406 67.347656 77.152344 C 67.347656 76.808594 67.519531 76.460938 67.78125 76.199219 C 68.296875 75.683594 69.25 75.507813 69.941406 75.507813 C 71.066406 75.507813 72.277344 75.769531 73.316406 76.285156 L 73.488281 76.375 L 73.578125 76.199219 L 74.355469 73.519531 L 74.355469 73.34375 "/>
<path style=" stroke:none;fill-rule:evenodd;fill:rgb(13.699341%,12.199402%,12.5%);fill-opacity:1;" d="M 30.050781 72.566406 C 27.195313 72.566406 23.734375 73.863281 23.734375 77.671875 C 23.734375 80.179688 25.550781 81.132813 27.109375 81.996094 C 28.320313 82.691406 29.359375 83.296875 29.359375 84.59375 C 29.359375 86.238281 27.886719 86.929688 26.417969 86.929688 C 24.945313 86.929688 23.648438 86.410156 22.4375 85.804688 L 22.261719 85.71875 L 22.261719 85.980469 L 21.398438 88.746094 L 21.3125 88.921875 L 21.484375 88.921875 C 23.128906 89.613281 24.773438 89.871094 26.242188 89.871094 C 28.667969 89.871094 30.570313 89.265625 31.695313 88.054688 C 32.648438 87.105469 33.164063 85.804688 33.164063 84.246094 C 33.164063 81.566406 31.261719 80.441406 29.703125 79.488281 C 28.578125 78.796875 27.542969 78.191406 27.542969 77.152344 C 27.542969 76.808594 27.714844 76.460938 27.972656 76.199219 C 28.492188 75.683594 29.445313 75.507813 30.136719 75.507813 C 31.261719 75.507813 32.472656 75.769531 33.511719 76.285156 L 33.683594 76.375 L 33.683594 76.199219 L 34.464844 73.519531 L 34.550781 73.34375 L 34.378906 73.257813 C 33.164063 72.824219 31.695313 72.566406 30.050781 72.566406 "/>
<path style=" stroke:none;fill-rule:evenodd;fill:rgb(13.699341%,12.199402%,12.5%);fill-opacity:1;" d="M 96.769531 72.824219 L 93.824219 72.824219 L 93.824219 73 L 90.363281 89.441406 L 90.363281 89.527344 L 90.277344 89.613281 L 93.910156 89.613281 L 94 89.441406 C 94 89.441406 95.125 84.421875 95.125 84.074219 L 96.941406 84.074219 C 99.105469 84.074219 101.179688 83.296875 102.480469 81.996094 C 103.515625 80.960938 104.121094 79.488281 104.121094 77.84375 C 104.121094 76.546875 103.691406 75.421875 102.910156 74.644531 C 101.441406 73.171875 98.757813 72.824219 96.769531 72.824219 Z M 96.855469 75.769531 L 97.804688 75.769531 C 98.496094 75.769531 99.191406 76.027344 99.710938 76.460938 C 100.140625 76.894531 100.402344 77.5 100.402344 78.191406 C 100.402344 80.09375 98.496094 81.132813 96.769531 81.132813 L 95.816406 81.132813 L 96.855469 75.769531 "/>
<path style=" stroke:none;fill-rule:evenodd;fill:rgb(13.699341%,12.199402%,12.5%);fill-opacity:1;" d="M 119.007813 74.46875 C 117.796875 73.257813 116.0625 72.566406 113.8125 72.566406 C 110.960938 72.566406 108.882813 73.519531 106.980469 75.683594 C 105.246094 77.671875 104.296875 80.269531 104.296875 82.949219 C 104.296875 85.027344 104.988281 86.84375 106.285156 88.144531 C 107.496094 89.355469 109.054688 89.960938 110.960938 89.960938 C 113.988281 89.960938 116.410156 89.007813 118.054688 87.105469 C 119.871094 85.113281 120.910156 82.519531 120.910156 79.75 C 120.910156 77.5 120.21875 75.683594 119.007813 74.46875 Z M 111.390625 87.015625 C 110.527344 87.015625 109.746094 86.757813 109.140625 86.152344 C 108.449219 85.460938 108.105469 84.421875 108.105469 83.121094 C 108.105469 80.785156 109.054688 78.363281 110.441406 76.980469 C 111.390625 76.027344 112.515625 75.507813 113.726563 75.507813 C 114.679688 75.507813 115.460938 75.855469 116.0625 76.375 C 116.757813 77.066406 117.101563 78.105469 117.101563 79.402344 C 117.101563 82.519531 115.113281 87.015625 111.390625 87.015625 "/>
<path style=" stroke:none;fill-rule:evenodd;fill:rgb(13.699341%,12.199402%,12.5%);fill-opacity:1;" d="M 133.371094 73.34375 C 132.160156 72.824219 130.6875 72.566406 129.042969 72.566406 C 126.101563 72.566406 122.726563 73.949219 122.726563 77.757813 C 122.726563 80.269531 124.457031 81.21875 126.015625 82.085938 C 127.226563 82.777344 128.351563 83.382813 128.351563 84.59375 C 128.351563 86.238281 126.882813 87.015625 125.410156 87.015625 C 123.9375 87.015625 122.554688 86.410156 121.429688 85.894531 L 121.257813 85.804688 L 121.257813 85.894531 L 121.171875 85.980469 L 120.304688 88.835938 L 120.304688 89.007813 L 120.390625 89.007813 C 122.121094 89.613281 123.679688 89.960938 125.148438 89.960938 C 127.574219 89.960938 129.476563 89.355469 130.6875 88.144531 C 131.640625 87.191406 132.074219 85.894531 132.074219 84.246094 C 132.074219 81.566406 130.167969 80.441406 128.613281 79.574219 C 127.488281 78.882813 126.535156 78.277344 126.535156 77.238281 C 126.535156 76.894531 126.621094 76.546875 126.882813 76.199219 C 127.574219 75.59375 128.785156 75.507813 129.132813 75.507813 C 130.167969 75.507813 131.378906 75.855469 132.417969 76.375 L 132.59375 76.460938 L 132.59375 76.375 L 132.679688 76.285156 L 133.457031 73.519531 L 133.457031 73.34375 L 133.371094 73.34375 "/>
<path style=" stroke:none;fill-rule:evenodd;fill:rgb(13.699341%,12.199402%,12.5%);fill-opacity:1;" d="M 147.476563 72.824219 L 134.496094 72.824219 L 134.410156 73 L 133.890625 75.507813 L 133.890625 75.683594 L 133.804688 75.769531 L 138.476563 75.769531 L 135.535156 89.441406 L 135.535156 89.527344 L 135.449219 89.613281 L 139.253906 89.613281 L 139.253906 89.441406 C 139.253906 89.441406 142.109375 76.375 142.285156 75.769531 L 146.871094 75.769531 L 146.871094 75.683594 L 146.957031 75.59375 L 147.476563 73 L 147.476563 72.824219 "/>
</g>
</svg>
